<?xml version="1.0" standalone="no"?>
<!DOCTYPE svg PUBLIC "-//W3C//DTD SVG 20010904//EN"
 "http://www.w3.org/TR/2001/REC-SVG-20010904/DTD/svg10.dtd">
<svg version="1.0" xmlns="http://www.w3.org/2000/svg"
 width="1040.000000pt" height="1040.000000pt" viewBox="0 0 1040.000000 1040.000000"
 preserveAspectRatio="xMidYMid meet">
<metadata>
Created by potrace 1.14, written by Peter Selinger 2001-2017
</metadata>
<g transform="translate(0.000000,1040.000000) scale(0.100000,-0.100000)"
fill="#000000" stroke="none">
<path d="M444 10348 c13 -29 38 -84 56 -123 18 -38 44 -95 57 -125 14 -30 41
-89 60 -130 20 -41 60 -129 90 -195 84 -184 83 -183 135 -295 27 -58 56 -117
64 -132 8 -16 13 -28 11 -28 -3 0 20 -50 49 -111 30 -61 54 -112 54 -114 0 -6
70 -159 158 -345 9 -19 17 -37 17 -40 1 -3 16 -36 35 -75 18 -38 34 -72 35
-75 1 -3 13 -30 27 -60 14 -30 38 -82 52 -115 15 -33 38 -82 51 -110 59 -126
115 -247 115 -250 0 -1 23 -52 51 -111 28 -60 58 -127 68 -149 10 -22 35 -76
56 -120 21 -44 39 -84 41 -90 1 -5 20 -47 42 -92 22 -46 46 -99 52 -118 6 -19
16 -35 21 -35 5 0 8 -3 7 -7 -1 -9 7 -31 51 -126 17 -37 32 -70 33 -75 1 -4
23 -50 48 -102 26 -52 53 -112 61 -132 7 -21 17 -38 22 -38 4 0 6 -4 3 -9 -3
-4 1 -17 9 -27 8 -10 15 -27 15 -36 0 -10 5 -18 10 -18 6 0 10 -7 10 -15 0 -8
4 -23 10 -33 9 -17 75 -157 120 -257 12 -27 33 -72 46 -99 13 -28 24 -56 24
-63 0 -7 5 -13 10 -13 6 0 10 -4 10 -9 0 -5 8 -26 17 -47 9 -22 16 -42 15 -46
-1 -5 3 -8 8 -8 5 0 9 -3 8 -7 -1 -7 14 -41 83 -188 12 -27 22 -53 21 -57 -1
-5 3 -8 10 -8 6 0 8 -3 5 -7 -4 -3 -1 -13 5 -21 7 -8 13 -19 14 -26 1 -6 24
-58 52 -116 27 -58 59 -126 71 -152 11 -27 31 -69 43 -95 12 -27 23 -50 23
-53 1 -3 19 -41 39 -85 21 -44 47 -100 58 -125 11 -25 40 -87 64 -139 24 -51
44 -95 44 -96 0 -2 23 -52 51 -112 54 -113 73 -158 67 -158 -1 0 7 -14 20 -32
12 -17 22 -37 22 -43 0 -11 8 -28 57 -123 8 -15 16 -37 18 -48 3 -12 11 -29
18 -38 8 -9 22 -40 33 -69 10 -28 22 -52 26 -52 4 0 8 -6 8 -13 0 -7 11 -35
24 -63 13 -27 38 -80 56 -119 17 -38 42 -92 55 -120 13 -27 37 -81 54 -120 18
-38 41 -87 52 -107 11 -21 20 -40 20 -43 -1 -7 69 -159 170 -373 27 -57 49
-105 49 -108 0 -2 16 -37 36 -77 19 -39 35 -73 35 -74 0 -3 37 -87 79 -178 18
-38 44 -95 57 -125 14 -30 41 -88 59 -128 19 -39 46 -98 60 -130 15 -31 39
-84 54 -117 58 -124 83 -180 84 -185 1 -3 14 -32 30 -65 16 -33 42 -89 58
-125 17 -36 40 -85 51 -109 12 -25 22 -47 22 -50 1 -3 22 -50 48 -104 26 -54
47 -100 47 -102 0 -2 25 -56 55 -120 30 -65 55 -119 55 -121 0 -2 20 -45 44
-96 24 -51 67 -145 96 -208 29 -63 63 -137 77 -165 14 -27 24 -50 23 -50 -1 0
14 -34 33 -75 64 -139 85 -185 107 -235 12 -27 38 -82 56 -122 19 -39 34 -76
34 -82 0 -6 5 -11 10 -11 6 0 10 -9 10 -19 0 -11 4 -22 9 -26 5 -3 12 -19 16
-35 4 -17 11 -30 16 -30 5 0 8 -3 7 -7 -1 -5 11 -34 25 -65 15 -32 39 -84 54
-115 14 -32 26 -61 25 -66 -1 -4 4 -7 11 -7 8 0 14 6 14 13 0 6 28 70 62 140
33 71 61 130 61 132 0 2 25 57 56 122 56 119 70 150 74 168 1 6 8 17 16 26 8
9 11 19 7 22 -3 4 -2 7 4 7 5 0 10 6 10 13 0 6 25 62 54 122 29 61 54 112 54
115 1 6 36 81 88 190 22 47 40 91 40 97 0 7 4 13 8 13 4 0 10 13 14 29 3 16
13 35 21 42 8 6 14 18 14 25 0 7 9 30 19 51 20 40 55 114 140 301 65 141 113
244 160 347 21 44 51 109 67 145 15 36 32 67 36 68 5 2 6 7 3 12 -3 5 0 14 7
22 7 7 14 19 15 25 2 6 20 49 41 95 47 101 56 121 54 131 -1 4 1 7 6 7 4 0 13
15 21 32 7 18 25 58 39 88 14 30 26 57 27 60 1 3 9 22 19 42 9 21 16 41 15 44
0 4 3 10 8 13 5 3 19 30 32 60 13 30 42 95 66 145 64 138 105 226 104 229 0 1
20 44 45 95 25 50 46 94 46 96 0 2 21 48 46 103 25 54 57 123 71 153 14 30 40
87 58 125 18 39 44 95 58 125 25 56 65 142 110 240 14 30 48 104 76 163 28 60
51 110 51 112 0 2 23 53 51 112 28 59 70 151 94 203 24 52 66 143 94 202 28
59 51 115 51 123 0 8 3 15 8 15 4 0 12 12 19 27 6 16 23 53 36 83 13 30 25 60
26 65 1 6 8 17 15 25 7 8 17 28 20 45 4 16 11 32 15 35 4 3 20 34 35 70 16 36
41 91 57 123 15 31 25 57 22 57 -2 0 5 13 16 29 12 16 21 33 21 38 0 5 11 33
25 61 14 29 25 56 25 62 0 5 5 10 12 10 6 0 8 3 5 6 -4 4 2 23 13 43 10 20 32
65 48 101 17 36 47 101 67 145 20 44 48 105 62 135 14 30 40 87 58 125 18 39
47 104 66 145 18 41 38 78 44 82 5 4 7 8 3 8 -3 0 9 32 28 70 19 39 34 73 34
75 0 3 18 41 40 85 21 44 39 81 39 83 -1 1 18 43 41 92 23 50 48 104 55 120 8
17 39 83 69 149 31 65 56 120 56 121 0 3 61 134 125 270 21 44 38 86 38 93 0
6 4 12 9 12 4 0 8 4 8 9 0 5 21 53 46 108 25 54 68 145 94 203 62 136 113 247
157 340 73 155 93 201 93 210 0 6 5 10 10 10 6 0 9 3 8 8 -2 8 8 33 55 132 88
189 117 252 117 256 0 2 18 41 40 86 22 46 40 89 40 95 0 7 4 13 8 13 9 0 37
70 34 83 -1 4 2 7 8 7 5 0 10 8 10 19 0 10 7 24 15 31 8 6 13 15 12 18 -1 4
15 41 34 82 20 41 37 78 37 83 1 4 14 31 29 60 15 28 27 54 28 57 2 18 41 100
48 100 4 0 7 6 7 14 0 8 15 45 34 82 18 38 48 103 66 144 18 41 43 96 56 122
14 27 25 51 25 55 1 5 6 17 12 28 6 11 12 22 12 25 1 4 59 128 72 153 2 4
-353 7 -790 7 l-795 0 -17 -37 c-10 -21 -33 -72 -52 -113 -35 -74 -71 -152
-131 -280 -94 -201 -117 -251 -143 -307 -16 -35 -43 -93 -61 -130 -17 -38 -32
-70 -33 -73 -2 -5 -41 -90 -96 -205 -18 -38 -33 -72 -34 -75 0 -3 -11 -24 -23
-46 -11 -23 -18 -44 -15 -48 4 -3 1 -6 -5 -6 -7 0 -12 -8 -12 -19 0 -10 -7
-24 -15 -31 -8 -7 -12 -16 -9 -21 3 -5 0 -9 -5 -9 -6 0 -10 -3 -9 -7 2 -5 -11
-37 -29 -73 -17 -36 -45 -96 -63 -135 -41 -91 -69 -152 -116 -250 -21 -44 -39
-82 -40 -85 0 -3 -15 -36 -33 -75 -18 -38 -48 -101 -66 -140 -18 -38 -47 -101
-66 -140 -18 -38 -33 -72 -34 -75 -1 -3 -22 -48 -46 -100 -25 -52 -52 -110
-60 -127 -8 -18 -16 -33 -19 -33 -3 0 -6 -10 -7 -22 -1 -11 -7 -24 -13 -28 -7
-4 -12 -11 -12 -16 0 -5 -5 -20 -10 -34 -5 -14 -9 -27 -8 -29 1 -2 -2 -7 -7
-10 -5 -3 -24 -40 -43 -81 -18 -41 -55 -121 -82 -178 -26 -56 -48 -107 -48
-112 0 -6 -5 -10 -12 -10 -6 0 -9 -3 -6 -6 3 -3 -22 -65 -57 -137 -34 -73 -71
-152 -83 -177 -21 -47 -89 -193 -125 -270 -11 -25 -20 -48 -19 -52 1 -5 -2 -8
-8 -8 -5 0 -10 -5 -10 -10 0 -11 -17 -48 -105 -235 -23 -49 -45 -100 -49 -112
-4 -13 -11 -23 -15 -23 -4 0 -8 -6 -8 -12 0 -7 -18 -50 -41 -95 -22 -46 -38
-83 -36 -83 3 0 -5 -15 -18 -32 -13 -18 -22 -34 -21 -35 3 -4 -26 -69 -82
-188 -27 -55 -49 -102 -49 -105 -1 -3 -11 -25 -23 -50 -20 -43 -53 -113 -138
-295 -110 -238 -117 -252 -193 -415 -20 -41 -36 -77 -37 -80 -2 -6 -42 -92
-106 -225 -23 -49 -43 -94 -43 -100 -1 -5 -7 -16 -14 -23 -7 -8 -10 -18 -7
-23 4 -5 1 -9 -4 -9 -6 0 -11 -5 -11 -10 0 -6 -23 -58 -52 -118 -28 -59 -52
-109 -52 -112 -1 -3 -9 -21 -18 -40 -66 -140 -152 -326 -169 -367 -8 -18 -17
-33 -20 -33 -3 0 -6 -6 -6 -12 0 -17 -56 -132 -65 -136 -5 -2 -8 -10 -8 -18 0
-26 -43 -100 -48 -84 -3 8 -29 64 -59 124 -29 60 -53 115 -53 122 0 8 -4 14
-10 14 -5 0 -10 4 -10 9 0 6 -25 63 -56 128 -31 65 -73 154 -94 198 -21 44
-67 142 -104 218 -36 76 -66 142 -66 147 0 6 -5 10 -10 10 -6 0 -9 3 -8 8 1 4
-10 32 -24 62 -43 91 -138 290 -181 380 -22 47 -40 88 -39 93 1 4 -2 7 -8 7
-5 0 -10 5 -10 11 0 11 -32 80 -138 299 -31 63 -56 117 -57 120 0 3 -17 39
-37 80 -90 188 -128 270 -128 279 0 5 -5 11 -11 13 -5 2 -11 10 -13 18 -4 19
-37 92 -114 248 -33 67 -61 125 -62 127 -1 7 -93 200 -181 383 -44 90 -79 165
-79 167 0 1 -38 81 -84 176 -105 220 -136 287 -136 299 0 6 -4 10 -10 10 -5 0
-10 4 -10 10 0 5 -27 67 -61 137 -33 71 -60 128 -59 128 1 0 -12 27 -28 60
-71 143 -152 316 -152 324 0 5 -7 14 -15 21 -9 7 -14 19 -11 27 3 7 2 13 -2
13 -4 0 -13 15 -21 33 -8 17 -36 77 -63 133 -26 55 -48 106 -48 112 0 7 -4 12
-10 12 -5 0 -10 5 -10 11 0 6 -31 76 -70 156 -38 80 -70 147 -70 149 0 2 -24
53 -54 113 -30 60 -52 112 -48 115 3 3 0 6 -6 6 -7 0 -12 4 -12 9 0 6 -28 68
-61 138 -34 70 -79 164 -99 208 l-38 80 1411 3 c776 1 1412 1 1414 -1 3 -4
-59 -159 -67 -167 -3 -3 -6 -12 -8 -20 -2 -8 -9 -28 -16 -45 -8 -16 -25 -57
-40 -91 -14 -33 -33 -78 -43 -100 -9 -21 -18 -43 -19 -49 -2 -9 -27 -69 -54
-130 -5 -11 -17 -38 -26 -60 -9 -22 -59 -141 -111 -265 -52 -124 -95 -231 -96
-237 0 -7 -4 -13 -9 -13 -4 0 -8 -7 -8 -15 0 -8 -4 -23 -10 -33 -5 -9 -23 -51
-40 -92 -17 -41 -39 -93 -49 -115 -10 -22 -29 -67 -41 -100 -13 -33 -26 -62
-29 -65 -3 -3 -6 -9 -7 -15 0 -9 -13 -40 -49 -120 -57 -128 -77 -198 -57 -207
4 -1 117 -223 252 -493 135 -269 248 -492 251 -495 4 -3 10 -16 14 -30 4 -14
17 -38 29 -55 11 -16 20 -32 19 -35 -2 -8 111 -235 120 -238 4 -2 5 -8 1 -13
-3 -5 0 -9 7 -9 7 0 9 -3 6 -6 -4 -4 4 -21 16 -38 12 -17 21 -32 19 -34 -1 -1
9 -25 24 -53 14 -28 27 -49 29 -47 1 1 13 28 25 58 12 30 26 64 31 75 5 11 29
71 54 133 25 61 51 124 57 140 6 15 12 29 13 32 1 3 7 19 14 35 7 17 23 57 36
90 13 33 35 86 49 117 14 31 26 60 26 63 0 4 6 21 14 38 8 18 31 73 51 122 19
50 40 99 45 110 5 11 24 58 43 105 19 47 38 94 42 105 5 11 9 23 10 28 2 4 4
10 5 15 1 4 2 10 1 15 0 4 4 7 9 7 6 0 10 9 10 20 0 11 5 20 12 20 6 0 9 3 5
6 -3 3 8 35 23 70 16 35 27 64 23 64 -3 0 0 6 6 13 6 8 8 17 4 20 -3 4 -1 7 5
7 7 0 12 6 12 14 0 7 10 35 22 62 12 27 23 58 25 68 2 11 11 28 20 38 9 10 13
18 9 18 -3 0 0 14 9 30 9 17 12 30 8 30 -5 0 -3 4 3 8 8 5 43 85 50 112 1 5 4
13 49 120 34 80 43 104 42 110 0 3 6 16 13 30 8 14 15 27 15 30 2 7 23 60 34
85 16 35 66 160 67 165 0 3 10 27 22 53 12 27 22 50 22 52 0 2 5 16 12 32 6
15 12 30 13 33 2 6 10 27 96 233 38 92 69 169 69 171 0 2 8 21 17 42 9 22 17
41 18 44 0 3 11 27 23 54 12 26 27 66 34 87 6 22 15 39 20 39 4 0 7 3 7 8 -1
4 0 9 1 12 1 3 3 12 5 20 1 8 14 40 28 70 37 82 89 218 87 226 -1 4 2 10 7 13
7 5 43 87 49 111 0 3 6 17 12 33 7 15 17 39 24 55 6 15 12 29 13 32 1 3 7 17
13 33 7 15 17 39 24 55 6 15 12 30 13 35 2 4 4 9 5 12 1 3 3 8 4 13 1 4 12 29
24 56 12 27 22 50 22 53 0 2 10 25 21 51 12 25 22 51 24 57 1 5 7 21 13 35 24
59 35 86 38 95 1 6 27 69 57 140 30 72 53 133 50 138 -2 4 -1520 7 -3373 7
l-3369 0 23 -52z"/>
</g>
</svg>
