<svg width="250" height="250" viewBox="0 0 250 250" fill="none" xmlns="http://www.w3.org/2000/svg">
<path d="M125 0C55.9635 0 0 55.9635 0 125C0 194.036 55.9635 250 125 250C194.036 250 250 194.036 250 125C250 55.9635 194.036 0 125 0ZM94.401 176.81H69.0885V95.3516H94.401V176.81ZM81.5885 85.3516C73.5937 85.3516 68.4245 79.6875 68.4245 72.6823C68.4245 65.5339 73.75 60.0391 81.9141 60.0391C90.0781 60.0391 95.0781 65.5339 95.2344 72.6823C95.2344 79.6875 90.0781 85.3516 81.5885 85.3516ZM186.849 176.81H161.536V131.667C161.536 121.159 157.865 114.023 148.711 114.023C141.719 114.023 137.565 118.854 135.729 123.503C135.052 125.156 134.883 127.5 134.883 129.831V176.797H109.557V121.328C109.557 111.159 109.232 102.656 108.893 95.3385H130.885L132.044 106.654H132.552C135.885 101.341 144.049 93.5026 157.708 93.5026C174.362 93.5026 186.849 104.661 186.849 128.646V176.81Z" fill="#717171"/>
</svg>
