<svg width="1440" height="900" viewBox="0 0 1440 900" fill="none" xmlns="http://www.w3.org/2000/svg">
<rect width="1440" height="900" fill="url(#paint0_linear)"/>
<path d="M206.764 368C222.477 368 231.995 358.28 231.995 342.164C231.995 326.099 222.477 316.429 206.915 316.429H188.482V368H206.764ZM199.386 358.658V325.771H206.336C216.005 325.771 221.117 330.707 221.117 342.164C221.117 353.672 216.005 358.658 206.31 358.658H199.386ZM257.497 368.755C267.066 368.755 273.512 364.097 275.023 356.92L265.102 356.266C264.019 359.212 261.249 360.748 257.673 360.748C252.31 360.748 248.91 357.197 248.91 351.431V351.406H275.25V348.46C275.25 335.315 267.292 328.818 257.069 328.818C245.687 328.818 238.309 336.901 238.309 348.837C238.309 361.1 245.586 368.755 257.497 368.755ZM248.91 344.758C249.137 340.351 252.486 336.826 257.245 336.826C261.904 336.826 265.127 340.15 265.152 344.758H248.91Z" fill="white"/>
<path d="M188.482 461.364H223.333V452.375H199.386V440.061H221.444V431.072H199.386V418.783H223.232V409.794H188.482V461.364ZM242.426 409.794H231.699V461.364H242.426V409.794ZM268.646 462.12C278.215 462.12 284.661 457.461 286.172 450.285L276.251 449.63C275.168 452.576 272.398 454.112 268.822 454.112C263.459 454.112 260.059 450.562 260.059 444.795V444.77H286.399V441.824C286.399 428.679 278.441 422.183 268.218 422.183C256.836 422.183 249.458 430.266 249.458 442.202C249.458 454.465 256.735 462.12 268.646 462.12ZM260.059 438.122C260.286 433.716 263.635 430.19 268.394 430.19C273.053 430.19 276.276 433.514 276.301 438.122H260.059ZM293.399 461.364H304.126V449.076L307.022 445.777L317.573 461.364H330.138L315.054 439.432L329.408 422.686H317.094L304.705 437.367H304.126V409.794H293.399V461.364ZM355.243 422.686H347.966V413.42H337.239V422.686H331.951V430.744H337.239V450.889C337.189 458.468 342.351 462.22 350.132 461.893C352.902 461.792 354.866 461.238 355.948 460.886L354.261 452.903C353.732 453.004 352.599 453.256 351.592 453.256C349.452 453.256 347.966 452.45 347.966 449.479V430.744H355.243V422.686ZM362.231 461.364H372.958V439.482C372.958 434.723 376.433 431.449 381.167 431.449C382.653 431.449 384.693 431.701 385.7 432.028V422.51C384.743 422.283 383.408 422.132 382.326 422.132C377.994 422.132 374.444 424.65 373.034 429.435H372.631V422.686H362.231V461.364ZM391.246 461.364H401.973V422.686H391.246V461.364ZM396.635 417.7C399.833 417.7 402.451 415.258 402.451 412.261C402.451 409.29 399.833 406.847 396.635 406.847C393.462 406.847 390.843 409.29 390.843 412.261C390.843 415.258 393.462 417.7 396.635 417.7ZM442.747 433.716C441.79 426.589 436.049 422.183 426.279 422.183C416.383 422.183 409.861 426.766 409.886 434.219C409.861 440.011 413.512 443.763 421.066 445.274L427.765 446.608C431.139 447.288 432.675 448.522 432.725 450.461C432.675 452.752 430.182 454.389 426.43 454.389C422.603 454.389 420.059 452.752 419.405 449.605L408.854 450.159C409.861 457.562 416.156 462.12 426.405 462.12C436.427 462.12 443.603 457.008 443.629 449.378C443.603 443.788 439.952 440.439 432.448 438.903L425.448 437.493C421.847 436.712 420.512 435.478 420.538 433.615C420.512 431.298 423.131 429.787 426.455 429.787C430.182 429.787 432.398 431.827 432.927 434.32L442.747 433.716ZM467.859 462.12C478.158 462.12 484.63 456.076 485.133 447.187H475.01C474.381 451.317 471.661 453.634 467.985 453.634C462.974 453.634 459.726 449.428 459.726 442.025C459.726 434.723 462.999 430.543 467.985 430.543C471.913 430.543 474.431 433.136 475.01 436.989H485.133C484.68 428.05 477.906 422.183 467.809 422.183C456.074 422.183 448.822 430.316 448.822 442.176C448.822 453.936 455.948 462.12 467.859 462.12ZM502.728 439.004C502.754 434.018 505.801 431.097 510.182 431.097C514.538 431.097 517.107 433.892 517.082 438.651V461.364H527.809V436.737C527.834 427.672 522.496 422.183 514.438 422.183C508.57 422.183 504.642 424.953 502.88 429.51H502.426V409.794H492.001V461.364H502.728V439.004ZM553.877 462.12C563.446 462.12 569.892 457.461 571.403 450.285L561.482 449.63C560.399 452.576 557.629 454.112 554.054 454.112C548.69 454.112 545.291 450.562 545.291 444.795V444.77H571.63V441.824C571.63 428.679 563.673 422.183 553.449 422.183C542.067 422.183 534.689 430.266 534.689 442.202C534.689 454.465 541.967 462.12 553.877 462.12ZM545.291 438.122C545.517 433.716 548.866 430.19 553.626 430.19C558.284 430.19 561.507 433.514 561.532 438.122H545.291ZM604.132 461.364L607.96 449.605H626.569L630.396 461.364H642.08L624.302 409.794H610.251L592.448 461.364H604.132ZM610.73 441.094L617.075 421.578H617.478L623.824 441.094H610.73ZM672.889 444.896C672.914 450.083 669.364 452.803 665.511 452.803C661.457 452.803 658.838 449.957 658.813 445.4V422.686H648.086V447.313C648.111 456.353 653.399 461.868 661.18 461.868C666.997 461.868 671.177 458.871 672.914 454.339H673.317V461.364H683.616V422.686H672.889V444.896ZM712.769 422.686H705.492V413.42H694.765V422.686H689.477V430.744H694.765V450.889C694.715 458.468 699.877 462.22 707.658 461.893C710.428 461.792 712.392 461.238 713.474 460.886L711.787 452.903C711.259 453.004 710.125 453.256 709.118 453.256C706.978 453.256 705.492 452.45 705.492 449.479V430.744H712.769V422.686ZM736.817 462.12C748.552 462.12 755.854 454.087 755.854 442.176C755.854 430.19 748.552 422.183 736.817 422.183C725.083 422.183 717.78 430.19 717.78 442.176C717.78 454.087 725.083 462.12 736.817 462.12ZM736.868 453.81C731.454 453.81 728.684 448.849 728.684 442.101C728.684 435.352 731.454 430.366 736.868 430.366C742.181 430.366 744.951 435.352 744.951 442.101C744.951 448.849 742.181 453.81 736.868 453.81Z" fill="#F6AE2D"/>
<path d="M188.281 559.456H199.008V520.778H188.281V559.456ZM193.67 515.792C196.867 515.792 199.486 513.35 199.486 510.353C199.486 507.382 196.867 504.939 193.67 504.939C190.497 504.939 187.878 507.382 187.878 510.353C187.878 513.35 190.497 515.792 193.67 515.792ZM218.328 537.095C218.353 532.109 221.325 529.189 225.656 529.189C229.962 529.189 232.555 532.009 232.53 536.743V559.456H243.257V534.829C243.257 525.814 237.969 520.274 229.911 520.274C224.17 520.274 220.015 523.095 218.278 527.602H217.824V520.778H207.601V559.456H218.328V537.095ZM311.46 507.885H300.607V540.318H300.154L277.894 507.885H268.325V559.456H279.228V526.998H279.606L302.042 559.456H311.46V507.885ZM337.894 560.211C347.462 560.211 353.909 555.553 355.42 548.376L345.498 547.722C344.416 550.668 341.646 552.204 338.07 552.204C332.706 552.204 329.307 548.653 329.307 542.887V542.862H355.646V539.916C355.646 526.771 347.689 520.274 337.466 520.274C326.084 520.274 318.706 528.358 318.706 540.293C318.706 552.556 325.983 560.211 337.894 560.211ZM329.307 536.214C329.534 531.807 332.883 528.282 337.642 528.282C342.3 528.282 345.523 531.606 345.549 536.214H329.307ZM376.899 560.086C383.144 560.086 386.392 556.485 387.878 553.262H388.331V559.456H398.907V507.885H388.205V527.275H387.878C386.443 524.127 383.345 520.274 376.874 520.274C368.388 520.274 361.211 526.872 361.211 540.167C361.211 553.11 368.086 560.086 376.899 560.086ZM380.298 551.549C375.036 551.549 372.165 546.866 372.165 540.117C372.165 533.419 374.985 528.811 380.298 528.811C385.511 528.811 388.432 533.217 388.432 540.117C388.432 547.017 385.461 551.549 380.298 551.549ZM425.354 560.211C434.922 560.211 441.369 555.553 442.879 548.376L432.958 547.722C431.875 550.668 429.105 552.204 425.53 552.204C420.166 552.204 416.767 548.653 416.767 542.887V542.862H443.106V539.916C443.106 526.771 435.149 520.274 424.925 520.274C413.544 520.274 406.166 528.358 406.166 540.293C406.166 552.556 413.443 560.211 425.354 560.211ZM416.767 536.214C416.993 531.807 420.343 528.282 425.102 528.282C429.76 528.282 432.983 531.606 433.009 536.214H416.767ZM450.106 559.456H460.834V537.574C460.834 532.815 464.309 529.541 469.043 529.541C470.528 529.541 472.568 529.793 473.575 530.12V520.602C472.618 520.375 471.284 520.224 470.201 520.224C465.87 520.224 462.319 522.742 460.909 527.527H460.506V520.778H450.106V559.456ZM489.848 507.885H479.121V559.456H489.848V507.885ZM509.471 560.186C515.187 560.186 518.888 557.693 520.777 554.093H521.079V559.456H531.252V533.369C531.252 524.152 523.446 520.274 514.834 520.274C505.568 520.274 499.474 524.706 497.988 531.757L507.909 532.563C508.64 529.994 510.931 528.106 514.784 528.106C518.435 528.106 520.525 529.944 520.525 533.117V533.268C520.525 535.761 517.881 536.088 511.158 536.743C503.503 537.448 496.628 540.016 496.628 548.653C496.628 556.308 502.093 560.186 509.471 560.186ZM512.543 552.783C509.244 552.783 506.877 551.247 506.877 548.301C506.877 545.279 509.37 543.793 513.147 543.265C515.489 542.937 519.316 542.383 520.601 541.527V545.632C520.601 549.686 517.252 552.783 512.543 552.783ZM550.302 537.095C550.327 532.109 553.298 529.189 557.629 529.189C561.935 529.189 564.529 532.009 564.504 536.743V559.456H575.231V534.829C575.231 525.814 569.943 520.274 561.885 520.274C556.144 520.274 551.989 523.095 550.251 527.602H549.798V520.778H539.575V559.456H550.302V537.095ZM597.938 560.086C604.183 560.086 607.431 556.485 608.917 553.262H609.37V559.456H619.946V507.885H609.244V527.275H608.917C607.481 524.127 604.384 520.274 597.913 520.274C589.427 520.274 582.25 526.872 582.25 540.167C582.25 553.11 589.124 560.086 597.938 560.086ZM601.337 551.549C596.074 551.549 593.204 546.866 593.204 540.117C593.204 533.419 596.024 528.811 601.337 528.811C606.55 528.811 609.471 533.217 609.471 540.117C609.471 547.017 606.499 551.549 601.337 551.549Z" fill="white"/>
<path d="M974.963 446.287C971.507 446.287 967.117 456.64 971.438 460.09C975.758 463.541 985.332 460.09 988.788 460.09C988.788 459.152 988.851 457.951 988.851 456.64H995.701V449.738H987.772C987.233 448.425 986.438 447.228 985.263 446.287H974.963Z" fill="url(#paint1_linear)" stroke="black" stroke-width="1.41916"/>
<path d="M970.464 513.018H983.105C986.935 513.018 990.019 516.098 990.019 519.92V568.312C990.019 572.134 986.935 575.214 983.105 575.214H970.464C966.635 575.214 963.901 572.117 963.552 568.312C960.438 526.865 962.857 523.069 963.552 519.92C964.375 516.184 966.635 513.018 970.464 513.018V513.018Z" fill="black" stroke="#666666" stroke-width="0.414237"/>
<path d="M1025.07 408.48C1077.95 400.544 1152.78 404.845 1156.42 408.48C1160.06 412.114 1187.71 449.702 1184.07 453.336C1180.43 456.97 997.609 456.97 993.968 453.336C990.326 449.702 1021.43 412.115 1025.07 408.48H1025.07Z" fill="#F6AE2D" stroke="black" stroke-width="1.41914"/>
<path d="M1028.8 413.008C1032.25 409.271 1149.77 409.271 1153.22 413.008C1156.68 416.746 1184.33 454.12 1180.87 457.857C1177.41 461.595 1000.88 460.66 997.417 456.923C993.965 453.185 1025.34 416.746 1028.8 413.008H1028.8Z" fill="url(#paint2_linear)" stroke="black" stroke-width="0.946112"/>
<path d="M972.066 497.16L1030.82 500.611L1034.28 524.768L1037.74 542.015L972.066 535.113V497.16Z" fill="#F6AE2D"/>
<path d="M992.805 452.306C992.805 452.306 1009.4 455.912 1032.68 456.786L1028.53 501.637L973.227 498.195C973.227 498.195 973.227 484.389 976.684 477.488C976.684 470.588 992.805 452.306 992.805 452.306V452.306Z" fill="url(#paint3_linear)"/>
<path d="M975.592 481.705C975.592 481.705 969.778 480.945 966.322 487.846C962.865 494.745 962.865 505.098 962.865 505.098V522.353L973.234 532.698V498.196L975.592 481.705Z" fill="#F6AE2D"/>
<path d="M1206.4 513.018H1193.76C1189.93 513.018 1186.85 516.098 1186.85 519.92V568.312C1186.85 572.134 1189.93 575.214 1193.76 575.214H1206.4C1210.23 575.214 1212.97 572.117 1213.31 568.312C1216.43 526.865 1214.01 523.069 1213.31 519.92C1212.49 516.184 1210.23 513.018 1206.4 513.018Z" fill="black" stroke="#666666" stroke-width="0.414237"/>
<path d="M1204.81 498.195L1149.5 501.646L1142.59 525.804V539.599L1204.81 532.697V498.195Z" fill="#F6AE2D"/>
<path d="M1201.35 477.494L1204.81 498.195L1204.57 532.819L1215.18 522.353V505.097C1215.18 505.097 1215.18 494.744 1211.72 487.846C1208.27 480.944 1201.35 477.494 1201.35 477.494Z" fill="#F6AE2D"/>
<path d="M1028.54 501.646L1032.77 524.958L1035.45 539.599H1142.59L1146.05 525.804H1145.1V525.761L1149.5 501.646H1028.54H1028.54Z" fill="#F6AE2D"/>
<path d="M1031.98 457.113H1146.04L1150.88 501.966H1028.52L1031.98 457.113H1031.98Z" fill="url(#paint4_linear)"/>
<path d="M1194.37 447.322C1193.2 448.261 1192.4 449.462 1191.87 450.773H1183.94V457.674H1190.79C1190.79 458.985 1190.86 460.186 1190.86 461.124C1194.31 461.124 1203.88 464.574 1208.2 461.124C1212.52 457.674 1208.14 447.322 1204.68 447.322H1194.37V447.322Z" fill="url(#paint5_linear)" stroke="black" stroke-width="1.41916"/>
<path d="M1184.06 453.663C1184.06 453.663 1169.32 456.239 1146.04 457.113L1149.49 501.966L1204.8 498.515C1205.32 496.444 1202.72 482.68 1201.35 477.816C1197.89 464.014 1184.06 453.663 1184.06 453.663Z" fill="url(#paint6_linear)"/>
<path fill-rule="evenodd" clip-rule="evenodd" d="M976.991 531.352L976.689 541.981C976.689 541.981 1093.92 552.351 1208.2 541.981L1207.89 531.352C1094.04 541.679 976.983 531.352 976.983 531.352H976.991Z" fill="#F6AE2D"/>
<path d="M962.865 522.352L966.322 540.314C966.322 540.314 973.196 551.772 976.172 553.428C979.283 555.154 1029.88 561.012 1035.45 561.012C1035.45 561.012 1101.12 562.737 1142.59 561.012C1184.07 559.286 1197.77 555.551 1201.35 554.118C1204.81 552.738 1211.72 540.314 1211.72 540.314L1215.18 522.352L1205.46 531.932L1204.81 532.058L1142.96 539.253L1036.06 539.357L973.234 532.696L962.865 522.352Z" fill="url(#paint7_linear)"/>
<path d="M1038.9 495.469H1139.13L1135.67 502.362H1042.36L1038.9 495.469H1038.9Z" fill="url(#paint8_linear)" stroke="#4D4D4D" stroke-width="1.41914"/>
<path d="M1180.61 453.335C1180.61 453.335 1187.52 460.236 1187.52 480.939L1146.04 494.744H1031.99L990.508 480.939C990.508 460.236 997.42 453.335 997.42 453.335" stroke="black" stroke-width="0.47305"/>
<path fill-rule="evenodd" clip-rule="evenodd" d="M1146.04 494.744C1146.04 505.089 1159.86 501.638 1190.98 498.196C1197.89 484.39 1187.52 480.939 1187.52 480.939L1146.04 494.744V494.744Z" fill="url(#paint9_linear)"/>
<path d="M1163.26 489.032L1146.18 494.701C1147.18 498.541 1150.71 501.371 1154.93 501.371C1159.92 501.371 1163.98 497.385 1163.98 492.484C1163.98 491.259 1163.72 490.094 1163.26 489.032V489.032Z" fill="url(#paint10_radial)" stroke="#5F8DD3" stroke-width="0.386735"/>
<path d="M1185.71 481.548L1172.53 485.925C1171.87 487.23 1171.5 488.704 1171.5 490.257C1171.5 494.727 1174.57 498.488 1178.75 499.618C1181.06 499.342 1183.6 499.058 1186.16 498.756C1189.2 497.099 1191.26 493.916 1191.26 490.257C1191.26 486.434 1188.98 483.129 1185.71 481.548Z" fill="url(#paint11_radial)"/>
<path d="M1146.04 494.744C1146.04 505.089 1173.35 502.328 1190.98 498.196C1197.89 484.39 1187.52 480.939 1187.52 480.939C1180.61 480.939 1146.04 494.744 1146.04 494.744V494.744Z" stroke="black" stroke-width="0.946112"/>
<path d="M1172.07 495.866C1172.07 498.23 1170.12 500.146 1167.73 500.146C1165.32 500.146 1163.38 498.23 1163.38 495.866C1163.38 493.511 1165.32 491.596 1167.73 491.596C1170.12 491.596 1172.07 493.511 1172.07 495.866Z" fill="url(#paint12_radial)" stroke="#5F8DD3" stroke-width="0.186043"/>
<path d="M1184.11 489.396C1184.11 490.923 1182.99 492.157 1181.61 492.157C1180.23 492.157 1179.1 490.923 1179.1 489.396C1179.1 487.875 1180.23 486.639 1181.61 486.639C1182.99 486.639 1184.11 487.875 1184.11 489.396Z" fill="#ECECEC"/>
<path d="M1185.84 492.527C1185.84 493.683 1185.46 494.624 1184.98 494.624C1184.5 494.624 1184.11 493.683 1184.11 492.527C1184.11 491.371 1184.5 490.431 1184.98 490.431C1185.46 490.431 1185.84 491.371 1185.84 492.527Z" fill="#ECECEC"/>
<path d="M1175.53 493.132C1176.11 494.133 1176.24 495.142 1175.83 495.375C1175.41 495.617 1174.61 494.995 1174.03 493.995C1173.45 492.994 1173.32 491.984 1173.74 491.751C1174.14 491.51 1174.95 492.131 1175.53 493.132Z" fill="#ECECEC"/>
<path d="M1177.84 492.64C1178.61 493.502 1178.96 494.451 1178.6 494.771C1178.25 495.09 1177.33 494.658 1176.56 493.796C1175.78 492.933 1175.44 491.984 1175.8 491.665C1176.15 491.345 1177.07 491.785 1177.84 492.64Z" fill="#ECECEC"/>
<path fill-rule="evenodd" clip-rule="evenodd" d="M1031.94 495.084C1031.94 505.435 1018.11 501.985 987.003 498.534C980.09 484.733 990.459 481.282 990.459 481.282L1031.94 495.084Z" fill="url(#paint13_linear)"/>
<path d="M1014.72 489.377L1031.8 495.049C1030.8 498.879 1027.26 501.709 1023.05 501.709C1018.06 501.709 1014.01 497.734 1014.01 492.827C1014.01 491.599 1014.25 490.44 1014.72 489.377Z" fill="url(#paint14_radial)" stroke="#5F8DD3" stroke-width="0.386735"/>
<path d="M992.274 481.896L1005.45 486.272C1006.11 487.576 1006.49 489.046 1006.49 490.605C1006.49 495.077 1003.41 498.838 999.228 499.963C996.926 499.687 994.382 499.404 991.818 499.1C988.783 497.444 986.723 494.256 986.723 490.605C986.723 486.775 988.997 483.477 992.274 481.896V481.896Z" fill="url(#paint15_radial)"/>
<path d="M1031.94 495.084C1031.94 505.435 1004.63 502.675 987.003 498.534C980.09 484.733 990.459 481.282 990.459 481.282C998.409 481.282 1023.64 492.669 1031.94 495.084Z" stroke="black" stroke-width="0.946106"/>
<path d="M1005.91 496.21C1005.91 498.571 1007.86 500.485 1010.26 500.485C1012.66 500.485 1014.61 498.571 1014.61 496.21C1014.61 493.849 1012.66 491.936 1010.26 491.936C1007.86 491.936 1005.91 493.849 1005.91 496.21Z" fill="url(#paint16_radial)" stroke="#5F8DD3" stroke-width="0.186042"/>
<path d="M993.863 489.743C993.863 491.268 994.984 492.503 996.369 492.503C997.754 492.503 998.875 491.268 998.875 489.743C998.875 488.218 997.754 486.982 996.369 486.982C994.984 486.982 993.863 488.218 993.863 489.743Z" fill="#ECECEC"/>
<path d="M992.137 492.872C992.137 494.029 992.524 494.966 993.001 494.966C993.479 494.966 993.865 494.029 993.865 492.872C993.865 491.715 993.479 490.778 993.001 490.778C992.524 490.778 992.137 491.715 992.137 492.872Z" fill="#ECECEC"/>
<path d="M1002.45 493.475C1001.87 494.478 1001.74 495.483 1002.15 495.72C1002.57 495.958 1003.37 495.338 1003.95 494.336C1004.53 493.333 1004.66 492.328 1004.25 492.09C1003.83 491.853 1003.03 492.472 1002.45 493.475Z" fill="#ECECEC"/>
<path d="M1000.14 492.985C999.363 493.845 999.022 494.8 999.377 495.119C999.732 495.438 1000.65 494.999 1001.42 494.139C1002.2 493.279 1002.54 492.325 1002.18 492.006C1001.83 491.687 1000.91 492.125 1000.14 492.985Z" fill="#ECECEC"/>
<path fill-rule="evenodd" clip-rule="evenodd" d="M976.991 499.904L976.689 510.542C976.689 510.542 1093.92 520.913 1208.2 510.542L1207.89 499.904C1094.04 510.24 976.983 499.904 976.983 499.904H976.991Z" fill="#F6AE2D"/>
<path d="M992.806 452.306C992.806 452.306 976.69 470.593 976.69 477.494C976.69 484.395 969.778 480.944 966.322 487.845C962.865 494.744 962.865 505.097 962.865 505.097V522.352L966.322 540.315C966.322 540.315 973.196 551.773 976.172 553.429C979.283 555.155 1029.88 561.013 1035.45 561.013C1035.45 561.013 1101.12 562.738 1142.59 561.013C1184.07 559.287 1197.77 555.551 1201.35 554.119C1204.81 552.739 1211.72 540.315 1211.72 540.315L1215.18 522.352V505.097C1215.18 505.097 1215.18 494.744 1211.72 487.845C1208.27 480.944 1201.35 477.494 1201.35 477.494C1197.9 463.692 1184.07 453.341 1184.07 453.341C1184.07 453.341 1169.32 455.917 1146.05 456.791H1032.69C1009.41 455.917 992.806 452.306 992.806 452.306H992.806Z" stroke="black" stroke-width="1.41914"/>
<path d="M1124.74 539.531H1052.36C1049.5 539.531 1047.18 541.849 1047.18 544.708V555.418C1047.18 558.277 1049.5 560.595 1052.36 560.595H1124.74C1127.6 560.595 1129.92 558.277 1129.92 555.418V544.708C1129.92 541.849 1127.6 539.531 1124.74 539.531Z" fill="#E6E6E6"/>
<path d="M1048.92 539.798C1048.19 540.359 1047.61 541.411 1047.33 542.705V557.502C1047.62 558.865 1048.24 559.952 1049.03 560.487H1057.76V539.798H1048.92V539.798Z" fill="#2A7FFF"/>
<path d="M1124.74 539.531H1052.36C1049.5 539.531 1047.18 541.849 1047.18 544.708V555.418C1047.18 558.277 1049.5 560.595 1052.36 560.595H1124.74C1127.6 560.595 1129.92 558.277 1129.92 555.418V544.708C1129.92 541.849 1127.6 539.531 1124.74 539.531Z" stroke="#4D4D4D" stroke-width="1.5661"/>
<path fill-rule="evenodd" clip-rule="evenodd" d="M976.991 510.386L976.689 521.024C976.689 521.024 1093.92 531.394 1208.2 521.024L1207.89 510.386C1094.04 520.722 976.983 510.386 976.983 510.386H976.991Z" fill="#F6AE2D"/>
<path fill-rule="evenodd" clip-rule="evenodd" d="M976.989 523.232L976.477 532.524C976.477 532.524 1089.4 541.712 1203.68 531.342L1207.89 523.232C1094.04 533.56 976.981 523.232 976.981 523.232H976.989Z" fill="#F6AE2D"/>
<defs>
<linearGradient id="paint0_linear" x1="720" y1="-892" x2="720" y2="1548.5" gradientUnits="userSpaceOnUse">
<stop offset="0.572917" stop-color="#043D1B"/>
<stop offset="1" stop-color="#13855A"/>
</linearGradient>
<linearGradient id="paint1_linear" x1="982.304" y1="457.134" x2="978.859" y2="446.78" gradientUnits="userSpaceOnUse">
<stop/>
<stop offset="1" stop-color="#727272"/>
</linearGradient>
<linearGradient id="paint2_linear" x1="1028.26" y1="404.167" x2="1075.71" y2="435.295" gradientUnits="userSpaceOnUse">
<stop stop-color="#141414"/>
<stop offset="0.39064" stop-color="#B1B1B1"/>
<stop offset="0.54963" stop-color="#3C3C3C"/>
<stop offset="0.72361" stop-color="#B1B1B1"/>
<stop offset="1" stop-color="#404040"/>
</linearGradient>
<linearGradient id="paint3_linear" x1="1002.95" y1="452.306" x2="1002.95" y2="501.637" gradientUnits="userSpaceOnUse">
<stop stop-color="#FFDB9B"/>
<stop offset="1" stop-color="#F6AE2D"/>
</linearGradient>
<linearGradient id="paint4_linear" x1="1089.7" y1="457.113" x2="1089.7" y2="501.966" gradientUnits="userSpaceOnUse">
<stop stop-color="#FFDB9B"/>
<stop offset="1" stop-color="#F6AE2D"/>
</linearGradient>
<linearGradient id="paint5_linear" x1="1200.06" y1="460.09" x2="1203.5" y2="449.734" gradientUnits="userSpaceOnUse">
<stop/>
<stop offset="1" stop-color="#727272"/>
</linearGradient>
<linearGradient id="paint6_linear" x1="1175.45" y1="453.663" x2="1175.45" y2="501.966" gradientUnits="userSpaceOnUse">
<stop stop-color="#FFDB9B"/>
<stop offset="1" stop-color="#F6AE2D"/>
</linearGradient>
<linearGradient id="paint7_linear" x1="962.865" y1="541.685" x2="1215.18" y2="541.685" gradientUnits="userSpaceOnUse">
<stop stop-color="#1D1D1D"/>
<stop offset="0.50822" stop-color="#808080"/>
<stop offset="1" stop-color="#1D1D1D"/>
</linearGradient>
<linearGradient id="paint8_linear" x1="1082.67" y1="493.711" x2="1082.67" y2="500.612" gradientUnits="userSpaceOnUse">
<stop stop-color="#666666"/>
<stop offset="1" stop-color="#3C3C3C"/>
</linearGradient>
<linearGradient id="paint9_linear" x1="1169.7" y1="498.88" x2="1167.78" y2="485.767" gradientUnits="userSpaceOnUse">
<stop stop-color="#5F8DD3"/>
<stop offset="0.47129" stop-color="#D5E5FF"/>
<stop offset="1" stop-color="#5F8DD3"/>
</linearGradient>
<radialGradient id="paint10_radial" cx="0" cy="0" r="1" gradientUnits="userSpaceOnUse" gradientTransform="translate(1155.08 495.202) scale(9.18283 6.44986)">
<stop stop-color="#E6E6E6"/>
<stop offset="0.5" stop-color="#B7C6DE"/>
<stop offset="1" stop-color="#213756"/>
</radialGradient>
<radialGradient id="paint11_radial" cx="0" cy="0" r="1" gradientUnits="userSpaceOnUse" gradientTransform="translate(1181.38 490.584) scale(10.1921 9.34439)">
<stop stop-color="#E6E6E6"/>
<stop offset="0.5" stop-color="#B7C6DE"/>
<stop offset="1" stop-color="#213756"/>
</radialGradient>
<radialGradient id="paint12_radial" cx="0" cy="0" r="1" gradientUnits="userSpaceOnUse" gradientTransform="translate(1167.72 495.871) scale(4.48577 4.41032)">
<stop stop-color="#E6E6E6"/>
<stop offset="0.5" stop-color="#B7C6DE"/>
<stop offset="1" stop-color="#213756"/>
</radialGradient>
<linearGradient id="paint13_linear" x1="1008.28" y1="499.225" x2="1010.2" y2="486.112" gradientUnits="userSpaceOnUse">
<stop stop-color="#5F8DD3"/>
<stop offset="0.47129" stop-color="#D5E5FF"/>
<stop offset="1" stop-color="#5F8DD3"/>
</linearGradient>
<radialGradient id="paint14_radial" cx="0" cy="0" r="1" gradientUnits="userSpaceOnUse" gradientTransform="translate(1022.9 495.546) rotate(180) scale(9.18283 6.4499)">
<stop stop-color="#E6E6E6"/>
<stop offset="0.5" stop-color="#B7C6DE"/>
<stop offset="1" stop-color="#213756"/>
</radialGradient>
<radialGradient id="paint15_radial" cx="0" cy="0" r="1" gradientUnits="userSpaceOnUse" gradientTransform="translate(996.601 490.93) rotate(180) scale(10.1921 9.3444)">
<stop stop-color="#E6E6E6"/>
<stop offset="0.5" stop-color="#B7C6DE"/>
<stop offset="1" stop-color="#213756"/>
</radialGradient>
<radialGradient id="paint16_radial" cx="0" cy="0" r="1" gradientUnits="userSpaceOnUse" gradientTransform="translate(1010.26 496.21) rotate(180) scale(4.48573 4.41022)">
<stop stop-color="#E6E6E6"/>
<stop offset="0.5" stop-color="#B7C6DE"/>
<stop offset="1" stop-color="#213756"/>
</radialGradient>
</defs>
</svg>
