<svg width="250" height="250" viewBox="0 0 250 250" fill="none" xmlns="http://www.w3.org/2000/svg">
<path fill-rule="evenodd" clip-rule="evenodd" d="M125 250C194.035 250 250 194.035 250 125C250 55.9648 194.035 0 125 0C55.9644 0 0 55.9648 0 125C0 194.035 55.9644 250 125 250ZM96.0312 54.4277C103.663 54 106.094 54 125.5 54C144.906 54 147.337 54.0898 154.969 54.4277C160.901 54.5488 166.771 55.6748 172.326 57.7598C177.078 59.5957 181.393 62.4043 184.994 66.0059C188.596 69.6074 191.404 73.9229 193.24 78.6738C195.325 84.2295 196.451 90.0986 196.572 96.0312C197 103.663 197 106.094 197 125.5C197 144.906 196.91 147.337 196.572 154.969C196.451 160.901 195.325 166.771 193.24 172.326C191.404 177.077 188.596 181.393 184.994 184.994C181.393 188.596 177.078 191.404 172.326 193.24C166.771 195.325 160.901 196.451 154.969 196.572C147.337 197 144.906 197 125.5 197C106.094 197 103.663 196.91 96.0312 196.572C90.0986 196.451 84.2295 195.325 78.6738 193.24C73.9224 191.404 69.6074 188.596 66.0059 184.994C62.4043 181.393 59.5952 177.077 57.7598 172.326C55.6753 166.771 54.5488 160.901 54.4277 154.969C54 147.337 54 144.906 54 125.5C54 106.094 54.0898 103.663 54.4277 96.0312C54.5488 90.0986 55.6753 84.2295 57.7598 78.6738C59.5952 73.9229 62.4043 69.6074 66.0059 66.0059C69.6074 62.4043 73.9224 59.5957 78.6738 57.7598C84.2295 55.6748 90.0986 54.5488 96.0312 54.4277ZM154.384 67.3496C146.842 66.9219 144.591 66.9219 125.5 66.9219C106.409 66.9219 104.158 66.9219 96.6387 67.3271C92.1035 67.3779 87.6104 68.208 83.3564 69.7812C80.2896 70.9707 77.5049 72.7852 75.1787 75.1113C72.853 77.4375 71.0381 80.2227 69.8486 83.2891C68.2754 87.543 67.4453 92.0361 67.395 96.5713C66.9673 104.113 66.9673 106.342 66.9673 125.455C66.9673 144.568 66.9673 146.819 67.3726 154.316C67.4229 158.852 68.2529 163.345 69.8262 167.599C71.0151 170.665 72.8306 173.45 75.1562 175.776C77.4819 178.102 80.2671 179.917 83.334 181.106C87.5879 182.68 92.0811 183.51 96.6162 183.56C104.158 183.987 106.409 183.987 125.5 183.987C144.591 183.987 146.842 183.987 154.361 183.582C158.896 183.532 163.39 182.702 167.644 181.129C170.71 179.939 173.495 178.124 175.821 175.799C178.147 173.473 179.962 170.688 181.151 167.621C182.725 163.367 183.555 158.874 183.605 154.339C184.033 146.797 184.033 144.523 184.033 125.455C184.033 106.387 184.033 104.136 183.628 96.5938C183.577 92.0586 182.747 87.5654 181.174 83.3115C179.985 80.2451 178.169 77.46 175.844 75.1338C173.518 72.8086 170.733 70.9932 167.666 69.8037C163.412 68.2305 158.919 67.4004 154.384 67.3496ZM125.5 149.297C120.79 149.297 116.186 147.9 112.27 145.284C108.353 142.668 105.3 138.949 103.497 134.599C101.693 130.247 101.22 125.459 102.138 120.84C103.055 116.22 105.321 111.976 108.65 108.644C111.979 105.312 116.221 103.042 120.839 102.12C125.458 101.198 130.247 101.667 134.599 103.467C138.952 105.266 142.673 108.315 145.293 112.229C147.913 116.143 149.313 120.746 149.318 125.456C149.321 128.585 148.707 131.686 147.512 134.577C146.316 137.47 144.562 140.099 142.35 142.312C140.138 144.526 137.511 146.283 134.62 147.481C131.729 148.68 128.629 149.297 125.5 149.297ZM125.5 88.7598C118.242 88.7598 111.147 90.9121 105.113 94.9443C99.0781 98.9766 94.375 104.708 91.5977 111.413C88.8203 118.118 88.0933 125.496 89.5093 132.614C90.9253 139.732 94.4204 146.271 99.5522 151.403C104.684 156.535 111.223 160.03 118.341 161.446C125.459 162.862 132.837 162.136 139.542 159.357C146.248 156.58 151.979 151.877 156.011 145.843C160.043 139.808 162.195 132.713 162.195 125.456C162.189 115.728 158.321 106.399 151.439 99.5225C144.559 92.6455 135.228 88.7822 125.5 88.7822V88.7598ZM170.79 92.084C171.732 90.6738 172.235 89.0146 172.235 87.3184C172.235 85.0439 171.332 82.8623 169.723 81.2539C168.115 79.6455 165.933 78.7412 163.658 78.7412C161.962 78.7412 160.303 79.2441 158.893 80.1865C157.482 81.1299 156.383 82.4688 155.734 84.0361C155.084 85.6035 154.915 87.3281 155.246 88.9922C155.577 90.6562 156.394 92.1846 157.593 93.3838C158.792 94.583 160.321 95.4004 161.985 95.7314C163.648 96.0625 165.373 95.8926 166.94 95.2432C168.508 94.5938 169.847 93.4941 170.79 92.084Z" fill="#717171"/>
</svg>
